<svg width="204" height="67" viewBox="0 0 204 67" fill="none" xmlns="http://www.w3.org/2000/svg">
<g filter="url(#filter0_d_73_250)">
<path d="M33.3926 0C17.1599 0 4 13.2078 4 29.5002C4 45.7932 17.1599 59 33.3926 59C49.6271 59 62.7856 45.7932 62.7856 29.5002C62.7856 13.2089 49.6271 0.00140909 33.3923 0.00140909L33.3926 0ZM46.8719 42.5477C46.3454 43.4143 45.2152 43.6891 44.3518 43.1572C37.4507 38.9263 28.7631 37.9682 18.5319 40.3143C17.5459 40.5398 16.5632 39.9198 16.3386 38.9299C16.1129 37.94 16.7282 36.9536 17.7165 36.7281C28.913 34.1608 38.517 35.2662 46.2647 40.0184C47.1281 40.5503 47.4019 41.6811 46.8719 42.5477ZM50.4695 34.5152C49.8061 35.5973 48.3952 35.939 47.3176 35.2733C39.4169 30.3992 27.3736 28.9876 18.0286 31.8347C16.8166 32.2021 15.5366 31.5166 15.1687 30.3023C14.8037 29.0859 15.4871 27.8036 16.6969 27.4337C27.3714 24.1829 40.6419 25.7576 49.7149 31.3535C50.7924 32.0193 51.1328 33.4351 50.4695 34.5152ZM50.7783 26.1508C41.3052 20.5034 25.6758 19.9842 16.6313 22.7393C15.1789 23.1814 13.643 22.3585 13.2028 20.9008C12.7627 19.4424 13.5819 17.9019 15.0353 17.4587C25.4179 14.2953 42.6776 14.9065 53.5841 21.4049C54.8933 22.1831 55.3215 23.8765 54.5458 25.1859C53.7737 26.497 52.0819 26.9293 50.7797 26.1508H50.7783ZM83.9676 27.2329C78.8923 26.0183 77.9903 25.1658 77.9903 23.3745C77.9903 21.6821 79.5767 20.5432 81.9389 20.5432C84.2273 20.5432 86.4947 21.4081 88.8744 23.1885C88.9445 23.2424 89.0358 23.2639 89.1236 23.2498C89.2148 23.2364 89.292 23.1874 89.3447 23.1138L91.8226 19.608C91.9244 19.4635 91.8963 19.2645 91.7595 19.1542C88.927 16.874 85.7401 15.7653 82.0126 15.7653C76.5337 15.7653 72.7044 19.0658 72.7044 23.788C72.7044 28.852 76.0072 30.6451 81.7142 32.0292C86.5684 33.1519 87.3897 34.0924 87.3897 35.7735C87.3897 37.637 85.733 38.796 83.0655 38.796C80.1032 38.796 77.6849 37.792 74.9823 35.4459C74.9156 35.386 74.8244 35.3613 74.7402 35.3648C74.6489 35.3719 74.5682 35.4142 74.512 35.4811L71.7322 38.7995C71.6164 38.9404 71.6304 39.1447 71.7638 39.2645C74.9086 42.0827 78.7765 43.5693 82.9532 43.5693C88.8568 43.5693 92.672 40.3319 92.672 35.319C92.6825 31.0893 90.159 28.7467 83.9781 27.2375L83.9676 27.2329ZM106.031 22.2095C103.472 22.2095 101.373 23.2212 99.6391 25.2944V22.9609C99.6391 22.7767 99.4917 22.6266 99.3092 22.6266H94.7639C94.5814 22.6266 94.434 22.7767 94.434 22.9609V48.8887C94.434 49.0719 94.5814 49.2233 94.7639 49.2233H99.3092C99.4917 49.2233 99.6391 49.0719 99.6391 48.8887V40.7053C101.373 42.6534 103.472 43.6081 106.031 43.6081C110.786 43.6081 115.602 39.9338 115.602 32.9098C115.609 25.8844 110.793 22.2092 106.034 22.2092L106.031 22.2095ZM110.316 32.9098C110.316 36.4851 108.122 38.9827 104.978 38.9827C101.871 38.9827 99.5268 36.3723 99.5268 32.9098C99.5268 29.447 101.871 26.8373 104.978 26.8373C108.07 26.837 110.316 29.3906 110.316 32.9098ZM127.939 22.2095C121.814 22.2095 117.016 26.9427 117.016 32.9863C117.016 38.9651 121.783 43.6468 127.865 43.6468C134.011 43.6468 138.823 38.9299 138.823 32.9098C138.823 26.9103 134.043 22.2102 127.939 22.2102V22.2095ZM127.939 39.0179C124.682 39.0179 122.225 36.39 122.225 32.9081C122.225 29.4103 124.598 26.8722 127.865 26.8722C131.144 26.8722 133.615 29.4991 133.615 32.9845C133.615 36.4816 131.228 39.0179 127.939 39.0179ZM151.901 22.6266H146.899V17.4954C146.899 17.3115 146.752 17.1614 146.569 17.1614H142.024C141.842 17.1614 141.691 17.3115 141.691 17.4954V22.6266H139.508C139.325 22.6266 139.178 22.7767 139.178 22.9609V26.8807C139.178 27.0646 139.325 27.215 139.508 27.215H141.691V37.3587C141.691 41.4557 143.723 43.5341 147.735 43.5341C149.363 43.5341 150.715 43.1959 151.989 42.4702C152.094 42.4139 152.157 42.3011 152.157 42.1814V38.4472C152.157 38.3345 152.097 38.2253 151.999 38.1654C151.901 38.102 151.778 38.0985 151.676 38.1513C150.802 38.5917 149.956 38.796 149.009 38.796C147.552 38.796 146.899 38.1302 146.899 36.6436V27.2167H151.901C152.083 27.2167 152.231 27.0667 152.231 26.8824V22.963C152.238 22.7788 152.09 22.6287 151.904 22.6287L151.901 22.6266ZM169.324 22.6467V22.0165C169.324 20.1624 170.033 19.3356 171.619 19.3356C172.567 19.3356 173.329 19.5245 174.181 19.8098C174.287 19.8429 174.396 19.8264 174.48 19.7633C174.568 19.7003 174.617 19.5991 174.617 19.4921V15.6487C174.617 15.5018 174.525 15.3719 174.382 15.3285C173.483 15.0597 172.332 14.7839 170.605 14.7839C166.411 14.7839 164.189 17.1561 164.189 21.6416V22.6069H162.006C161.823 22.6069 161.672 22.7569 161.672 22.9408V26.8807C161.672 27.0646 161.823 27.215 162.006 27.215H164.189V42.8577C164.189 43.0444 164.34 43.1924 164.522 43.1924H169.064C169.25 43.1924 169.398 43.0444 169.398 42.8577V27.216H173.641L180.141 42.8577C179.404 44.4993 178.678 44.8269 177.688 44.8269C176.888 44.8269 176.042 44.5874 175.182 44.1118C175.101 44.0695 175.003 44.0625 174.919 44.0872C174.831 44.1189 174.757 44.1823 174.722 44.2668L173.181 47.6592C173.107 47.8213 173.171 48.008 173.325 48.0925C174.933 48.9662 176.382 49.3396 178.176 49.3396C181.531 49.3396 183.388 47.7684 185.02 43.5482L192.903 23.1032C192.945 23.0004 192.931 22.8841 192.868 22.7929C192.808 22.7023 192.707 22.6477 192.598 22.6477H187.866C187.723 22.6477 187.596 22.7383 187.551 22.8718L182.703 36.7634L177.396 22.8626C177.347 22.7333 177.225 22.6477 177.088 22.6477H169.324V22.6467ZM159.222 22.6266H154.677C154.495 22.6266 154.344 22.7767 154.344 22.9609V42.8577C154.344 43.0444 154.495 43.1924 154.677 43.1924H159.222C159.405 43.1924 159.556 43.0444 159.556 42.8577V22.9623C159.556 22.7781 159.408 22.628 159.222 22.628V22.6266ZM156.976 13.5664C155.176 13.5664 153.715 15.0291 153.715 16.8359C153.715 18.6438 155.176 20.1082 156.976 20.1082C158.777 20.1082 160.233 18.6438 160.233 16.8359C160.233 15.0294 158.773 13.5664 156.976 13.5664ZM196.785 29.0243C194.988 29.0243 193.587 27.5746 193.587 25.8143C193.587 24.054 195.005 22.5878 196.803 22.5878C198.6 22.5878 200 24.0371 200 25.796C200 27.5563 198.582 29.0243 196.785 29.0243ZM196.803 22.907C195.163 22.907 193.924 24.2139 193.924 25.8143C193.924 27.414 195.156 28.7033 196.785 28.7033C198.424 28.7033 199.663 27.3974 199.663 25.796C199.663 24.1963 198.431 22.907 196.803 22.907ZM197.512 26.1261L198.417 27.3971H197.652L196.838 26.2311H196.139V27.3971H195.5V24.0279H196.996C197.778 24.0279 198.291 24.4285 198.291 25.1027C198.294 25.6551 197.975 25.9926 197.515 26.1261H197.512ZM196.971 24.606H196.139V25.6717H196.971C197.385 25.6717 197.634 25.4677 197.634 25.1383C197.634 24.7917 197.385 24.606 196.971 24.606Z" fill="#62CD5D"/>
</g>
<defs>
<filter id="filter0_d_73_250" x="0" y="0" width="204" height="67" filterUnits="userSpaceOnUse" color-interpolation-filters="sRGB">
<feFlood flood-opacity="0" result="BackgroundImageFix"/>
<feColorMatrix in="SourceAlpha" type="matrix" values="0 0 0 0 0 0 0 0 0 0 0 0 0 0 0 0 0 0 127 0" result="hardAlpha"/>
<feOffset dy="4"/>
<feGaussianBlur stdDeviation="2"/>
<feComposite in2="hardAlpha" operator="out"/>
<feColorMatrix type="matrix" values="0 0 0 0 0 0 0 0 0 0 0 0 0 0 0 0 0 0 0.25 0"/>
<feBlend mode="normal" in2="BackgroundImageFix" result="effect1_dropShadow_73_250"/>
<feBlend mode="normal" in="SourceGraphic" in2="effect1_dropShadow_73_250" result="shape"/>
</filter>
</defs>
</svg>
